<svg width="13" height="14" viewBox="0 0 13 14" fill="none" xmlns="http://www.w3.org/2000/svg">
<g clip-path="url(#clip0_314_100)">
<path d="M7.39427 13.4952C6.92767 13.4952 6.50304 13.2753 6.22501 12.8881C6.04656 12.6397 5.95222 12.3466 5.95222 12.0407V2.40801C5.95222 2.35756 5.94059 2.30681 5.91836 2.26132L5.90148 2.22669C5.7546 1.92529 5.46989 1.96497 5.38605 1.98424C5.30126 2.00379 5.02456 2.0944 5.02456 2.43767V9.61376C5.02456 10.2024 4.67223 10.7261 4.12704 10.9478C3.58185 11.1697 2.96389 11.0406 2.55299 10.6192C2.28917 10.3486 2.14391 9.99146 2.14391 9.61366V5.25796C2.14391 4.9619 1.91795 4.84611 1.84871 4.81759C1.77937 4.78917 1.5372 4.71277 1.32917 4.92346C1.24057 5.01321 1.19183 5.13196 1.19183 5.25796V8.85692C1.19183 9.12656 0.973218 9.34517 0.70358 9.34517C0.433942 9.34517 0.215332 9.12656 0.215332 8.85692V5.25796C0.215332 4.87348 0.364124 4.51104 0.634335 4.23739C1.05639 3.81 1.66386 3.6861 2.21954 3.91434C2.77523 4.1424 3.1204 4.65735 3.1204 5.25796V9.61366C3.1204 9.73537 3.16724 9.85039 3.25212 9.93748C3.45433 10.1448 3.69125 10.0709 3.75916 10.0433C3.82688 10.0158 4.04807 9.90333 4.04807 9.61385V2.43767C4.04807 1.7518 4.49749 1.18715 5.16649 1.03283C5.83281 0.879075 6.48091 1.18686 6.77926 1.79882L6.79614 1.83354C6.88284 2.01152 6.92872 2.21019 6.92872 2.40811L6.92863 12.0408C6.92863 12.141 6.95962 12.2371 7.01809 12.3185C7.14008 12.4884 7.29622 12.5211 7.40591 12.5186C7.63615 12.5134 7.8808 12.3442 7.8808 12.0409V11.347C7.8808 11.0773 8.09941 10.8587 8.36905 10.8587C8.63869 10.8587 8.8573 11.0773 8.8573 11.347V12.0409C8.8573 12.9307 8.1306 13.4789 7.42803 13.4949C7.41678 13.4951 7.40552 13.4952 7.39427 13.4952ZM11.2745 11.054C11.8153 11.0535 12.2911 10.763 12.5472 10.2768C12.6566 10.0689 12.7144 9.83485 12.7144 9.59993V6.12267C12.7144 5.85303 12.4958 5.63442 12.2262 5.63442C11.9566 5.63442 11.738 5.85303 11.738 6.12267V9.59993C11.738 9.67699 11.719 9.75368 11.6831 9.82178C11.5719 10.033 11.3991 10.0774 11.2737 10.0775C11.2735 10.0775 11.2735 10.0775 11.2733 10.0775C11.1458 10.0775 11.0208 10.0304 10.9302 9.94816C10.8344 9.86117 10.7859 9.74405 10.7859 9.59993V5.25767C10.7859 4.72011 10.5047 4.24445 10.0339 3.98521C9.56301 3.72597 9.01076 3.74275 8.55647 4.03023C8.13337 4.29806 7.8808 4.75693 7.8808 5.25758V8.90566C7.8808 9.17539 8.09941 9.39391 8.36905 9.39391C8.63869 9.39391 8.8573 9.17539 8.8573 8.90566V5.25767C8.8573 5.09352 8.94009 4.9432 9.07877 4.85536C9.29328 4.71963 9.4888 4.79985 9.56291 4.84067C9.63702 4.8814 9.80938 5.00377 9.80938 5.25767V9.59993C9.80938 10.0189 9.97438 10.3994 10.274 10.6712C10.5421 10.9145 10.9061 11.054 11.2733 11.054H11.2745Z" fill="#0125EF"/>
</g>
<defs>
<clipPath id="clip0_314_100">
<rect width="12.5016" height="12.5016" fill="white" transform="translate(0.215332 0.993652)"/>
</clipPath>
</defs>
</svg>
